<mxfile host="Electron" agent="Mozilla/5.0 (Macintosh; Intel Mac OS X 10_15_7) AppleWebKit/537.36 (KHTML, like Gecko) draw.io/27.0.9 Chrome/134.0.6998.205 Electron/35.4.0 Safari/537.36" version="27.0.9">
  <diagram name="Page-1" id="YwU-ym1IrsTg3qPxAcSA">
    <mxGraphModel dx="2305" dy="943" grid="1" gridSize="10" guides="1" tooltips="1" connect="1" arrows="1" fold="1" page="1" pageScale="1" pageWidth="850" pageHeight="1100" math="0" shadow="0">
      <root>
        <mxCell id="0" />
        <mxCell id="1" parent="0" />
        <mxCell id="W7zw9zWphbjfF9petZ9U-1" value="(Class): BudgetManager" style="swimlane;fontStyle=1;align=center;verticalAlign=top;childLayout=stackLayout;horizontal=1;startSize=26;horizontalStack=0;resizeParent=1;resizeParentMax=0;resizeLast=0;collapsible=1;marginBottom=0;whiteSpace=wrap;html=1;" vertex="1" parent="1">
          <mxGeometry x="290" y="351" width="270" height="188" as="geometry" />
        </mxCell>
        <mxCell id="W7zw9zWphbjfF9petZ9U-2" value="- transactions: List&amp;lt;Transaction&amp;gt;&lt;div&gt;- user: User&lt;/div&gt;" style="text;strokeColor=none;fillColor=none;align=left;verticalAlign=top;spacingLeft=4;spacingRight=4;overflow=hidden;rotatable=0;points=[[0,0.5],[1,0.5]];portConstraint=eastwest;whiteSpace=wrap;html=1;" vertex="1" parent="W7zw9zWphbjfF9petZ9U-1">
          <mxGeometry y="26" width="270" height="44" as="geometry" />
        </mxCell>
        <mxCell id="W7zw9zWphbjfF9petZ9U-3" value="" style="line;strokeWidth=1;fillColor=none;align=left;verticalAlign=middle;spacingTop=-1;spacingLeft=3;spacingRight=3;rotatable=0;labelPosition=right;points=[];portConstraint=eastwest;strokeColor=inherit;" vertex="1" parent="W7zw9zWphbjfF9petZ9U-1">
          <mxGeometry y="70" width="270" height="8" as="geometry" />
        </mxCell>
        <mxCell id="W7zw9zWphbjfF9petZ9U-4" value="+ addTransaction(transaction: Transaction): void&lt;div&gt;+ getAllTransactions(): List&amp;lt;Transaction&amp;gt;&lt;/div&gt;&lt;div&gt;+ getTotalIncome(): double&lt;/div&gt;&lt;div&gt;+ getTotalExpenses(): double&lt;/div&gt;&lt;div&gt;+ getBalance(): double&lt;/div&gt;&lt;div&gt;+ setUser(user: User): void&lt;/div&gt;&lt;div&gt;+ getUser(): User&lt;/div&gt;" style="text;strokeColor=none;fillColor=none;align=left;verticalAlign=top;spacingLeft=4;spacingRight=4;overflow=hidden;rotatable=0;points=[[0,0.5],[1,0.5]];portConstraint=eastwest;whiteSpace=wrap;html=1;" vertex="1" parent="W7zw9zWphbjfF9petZ9U-1">
          <mxGeometry y="78" width="270" height="110" as="geometry" />
        </mxCell>
        <mxCell id="W7zw9zWphbjfF9petZ9U-5" value="(Class): TestTransaction" style="swimlane;fontStyle=1;align=center;verticalAlign=top;childLayout=stackLayout;horizontal=1;startSize=26;horizontalStack=0;resizeParent=1;resizeParentMax=0;resizeLast=0;collapsible=1;marginBottom=0;whiteSpace=wrap;html=1;" vertex="1" parent="1">
          <mxGeometry x="60" y="415" width="160" height="60" as="geometry" />
        </mxCell>
        <mxCell id="W7zw9zWphbjfF9petZ9U-7" value="" style="line;strokeWidth=1;fillColor=none;align=left;verticalAlign=middle;spacingTop=-1;spacingLeft=3;spacingRight=3;rotatable=0;labelPosition=right;points=[];portConstraint=eastwest;strokeColor=inherit;" vertex="1" parent="W7zw9zWphbjfF9petZ9U-5">
          <mxGeometry y="26" width="160" height="8" as="geometry" />
        </mxCell>
        <mxCell id="W7zw9zWphbjfF9petZ9U-8" value="+ main(args: String[]): void" style="text;strokeColor=none;fillColor=none;align=left;verticalAlign=top;spacingLeft=4;spacingRight=4;overflow=hidden;rotatable=0;points=[[0,0.5],[1,0.5]];portConstraint=eastwest;whiteSpace=wrap;html=1;" vertex="1" parent="W7zw9zWphbjfF9petZ9U-5">
          <mxGeometry y="34" width="160" height="26" as="geometry" />
        </mxCell>
        <mxCell id="W7zw9zWphbjfF9petZ9U-9" value="(Class): TestUser" style="swimlane;fontStyle=1;align=center;verticalAlign=top;childLayout=stackLayout;horizontal=1;startSize=26;horizontalStack=0;resizeParent=1;resizeParentMax=0;resizeLast=0;collapsible=1;marginBottom=0;whiteSpace=wrap;html=1;" vertex="1" parent="1">
          <mxGeometry x="630" y="410" width="160" height="60" as="geometry" />
        </mxCell>
        <mxCell id="W7zw9zWphbjfF9petZ9U-11" value="" style="line;strokeWidth=1;fillColor=none;align=left;verticalAlign=middle;spacingTop=-1;spacingLeft=3;spacingRight=3;rotatable=0;labelPosition=right;points=[];portConstraint=eastwest;strokeColor=inherit;" vertex="1" parent="W7zw9zWphbjfF9petZ9U-9">
          <mxGeometry y="26" width="160" height="8" as="geometry" />
        </mxCell>
        <mxCell id="W7zw9zWphbjfF9petZ9U-12" value="+ main(args: String[]): void" style="text;strokeColor=none;fillColor=none;align=left;verticalAlign=top;spacingLeft=4;spacingRight=4;overflow=hidden;rotatable=0;points=[[0,0.5],[1,0.5]];portConstraint=eastwest;whiteSpace=wrap;html=1;" vertex="1" parent="W7zw9zWphbjfF9petZ9U-9">
          <mxGeometry y="34" width="160" height="26" as="geometry" />
        </mxCell>
        <mxCell id="W7zw9zWphbjfF9petZ9U-13" value="(Class): User" style="swimlane;fontStyle=1;align=center;verticalAlign=top;childLayout=stackLayout;horizontal=1;startSize=26;horizontalStack=0;resizeParent=1;resizeParentMax=0;resizeLast=0;collapsible=1;marginBottom=0;whiteSpace=wrap;html=1;" vertex="1" parent="1">
          <mxGeometry x="620" y="570" width="200" height="160" as="geometry" />
        </mxCell>
        <mxCell id="W7zw9zWphbjfF9petZ9U-14" value="- firstName: String&lt;div&gt;- lastName: String&lt;/div&gt;&lt;div&gt;- userID: String&lt;/div&gt;&lt;div&gt;- monthlyBudgetGoal: double&lt;/div&gt;" style="text;strokeColor=none;fillColor=none;align=left;verticalAlign=top;spacingLeft=4;spacingRight=4;overflow=hidden;rotatable=0;points=[[0,0.5],[1,0.5]];portConstraint=eastwest;whiteSpace=wrap;html=1;" vertex="1" parent="W7zw9zWphbjfF9petZ9U-13">
          <mxGeometry y="26" width="200" height="64" as="geometry" />
        </mxCell>
        <mxCell id="W7zw9zWphbjfF9petZ9U-15" value="" style="line;strokeWidth=1;fillColor=none;align=left;verticalAlign=middle;spacingTop=-1;spacingLeft=3;spacingRight=3;rotatable=0;labelPosition=right;points=[];portConstraint=eastwest;strokeColor=inherit;" vertex="1" parent="W7zw9zWphbjfF9petZ9U-13">
          <mxGeometry y="90" width="200" height="8" as="geometry" />
        </mxCell>
        <mxCell id="W7zw9zWphbjfF9petZ9U-16" value="+ getName(): String&lt;div&gt;+ getUserID(): String&lt;/div&gt;&lt;div&gt;+ getMonthlyBudgetGoal(): double&lt;/div&gt;" style="text;strokeColor=none;fillColor=none;align=left;verticalAlign=top;spacingLeft=4;spacingRight=4;overflow=hidden;rotatable=0;points=[[0,0.5],[1,0.5]];portConstraint=eastwest;whiteSpace=wrap;html=1;" vertex="1" parent="W7zw9zWphbjfF9petZ9U-13">
          <mxGeometry y="98" width="200" height="62" as="geometry" />
        </mxCell>
        <mxCell id="W7zw9zWphbjfF9petZ9U-17" value="(Class): Transaction" style="swimlane;fontStyle=1;align=center;verticalAlign=top;childLayout=stackLayout;horizontal=1;startSize=26;horizontalStack=0;resizeParent=1;resizeParentMax=0;resizeLast=0;collapsible=1;marginBottom=0;whiteSpace=wrap;html=1;" vertex="1" parent="1">
          <mxGeometry x="60" y="570" width="160" height="200" as="geometry" />
        </mxCell>
        <mxCell id="W7zw9zWphbjfF9petZ9U-18" value="- amount: double&lt;div&gt;- type: String&lt;/div&gt;&lt;div&gt;- category: String&lt;/div&gt;&lt;div&gt;- description: String&lt;/div&gt;&lt;div&gt;- date: LocalDate&lt;/div&gt;" style="text;strokeColor=none;fillColor=none;align=left;verticalAlign=top;spacingLeft=4;spacingRight=4;overflow=hidden;rotatable=0;points=[[0,0.5],[1,0.5]];portConstraint=eastwest;whiteSpace=wrap;html=1;" vertex="1" parent="W7zw9zWphbjfF9petZ9U-17">
          <mxGeometry y="26" width="160" height="84" as="geometry" />
        </mxCell>
        <mxCell id="W7zw9zWphbjfF9petZ9U-19" value="" style="line;strokeWidth=1;fillColor=none;align=left;verticalAlign=middle;spacingTop=-1;spacingLeft=3;spacingRight=3;rotatable=0;labelPosition=right;points=[];portConstraint=eastwest;strokeColor=inherit;" vertex="1" parent="W7zw9zWphbjfF9petZ9U-17">
          <mxGeometry y="110" width="160" height="8" as="geometry" />
        </mxCell>
        <mxCell id="W7zw9zWphbjfF9petZ9U-20" value="+ getAmount(): double&lt;div&gt;+ getType(): String&lt;/div&gt;&lt;div&gt;+ getCategory(): String&lt;/div&gt;&lt;div&gt;+ getDescription(): String&lt;/div&gt;&lt;div&gt;+ getDate(): LocalDate&lt;/div&gt;&lt;div&gt;&lt;br&gt;&lt;/div&gt;" style="text;strokeColor=none;fillColor=none;align=left;verticalAlign=top;spacingLeft=4;spacingRight=4;overflow=hidden;rotatable=0;points=[[0,0.5],[1,0.5]];portConstraint=eastwest;whiteSpace=wrap;html=1;" vertex="1" parent="W7zw9zWphbjfF9petZ9U-17">
          <mxGeometry y="118" width="160" height="82" as="geometry" />
        </mxCell>
        <mxCell id="W7zw9zWphbjfF9petZ9U-21" value="(Class): TestBudgetManager" style="swimlane;fontStyle=1;align=center;verticalAlign=top;childLayout=stackLayout;horizontal=1;startSize=26;horizontalStack=0;resizeParent=1;resizeParentMax=0;resizeLast=0;collapsible=1;marginBottom=0;whiteSpace=wrap;html=1;" vertex="1" parent="1">
          <mxGeometry x="510" y="110" width="180" height="60" as="geometry" />
        </mxCell>
        <mxCell id="W7zw9zWphbjfF9petZ9U-23" value="" style="line;strokeWidth=1;fillColor=none;align=left;verticalAlign=middle;spacingTop=-1;spacingLeft=3;spacingRight=3;rotatable=0;labelPosition=right;points=[];portConstraint=eastwest;strokeColor=inherit;" vertex="1" parent="W7zw9zWphbjfF9petZ9U-21">
          <mxGeometry y="26" width="180" height="8" as="geometry" />
        </mxCell>
        <mxCell id="W7zw9zWphbjfF9petZ9U-24" value="+ main(args: String[]): void" style="text;strokeColor=none;fillColor=none;align=left;verticalAlign=top;spacingLeft=4;spacingRight=4;overflow=hidden;rotatable=0;points=[[0,0.5],[1,0.5]];portConstraint=eastwest;whiteSpace=wrap;html=1;" vertex="1" parent="W7zw9zWphbjfF9petZ9U-21">
          <mxGeometry y="34" width="180" height="26" as="geometry" />
        </mxCell>
        <mxCell id="W7zw9zWphbjfF9petZ9U-25" value="(Class): AddTransactionWIndow" style="swimlane;fontStyle=1;align=center;verticalAlign=top;childLayout=stackLayout;horizontal=1;startSize=26;horizontalStack=0;resizeParent=1;resizeParentMax=0;resizeLast=0;collapsible=1;marginBottom=0;whiteSpace=wrap;html=1;" vertex="1" parent="1">
          <mxGeometry x="740" y="110" width="350" height="60" as="geometry" />
        </mxCell>
        <mxCell id="W7zw9zWphbjfF9petZ9U-27" value="" style="line;strokeWidth=1;fillColor=none;align=left;verticalAlign=middle;spacingTop=-1;spacingLeft=3;spacingRight=3;rotatable=0;labelPosition=right;points=[];portConstraint=eastwest;strokeColor=inherit;" vertex="1" parent="W7zw9zWphbjfF9petZ9U-25">
          <mxGeometry y="26" width="350" height="8" as="geometry" />
        </mxCell>
        <mxCell id="W7zw9zWphbjfF9petZ9U-28" value="+ display(manager: BudgetManager, primaryStage: Stage): void" style="text;strokeColor=none;fillColor=none;align=left;verticalAlign=top;spacingLeft=4;spacingRight=4;overflow=hidden;rotatable=0;points=[[0,0.5],[1,0.5]];portConstraint=eastwest;whiteSpace=wrap;html=1;" vertex="1" parent="W7zw9zWphbjfF9petZ9U-25">
          <mxGeometry y="34" width="350" height="26" as="geometry" />
        </mxCell>
        <mxCell id="W7zw9zWphbjfF9petZ9U-29" value="(Class): Stage" style="swimlane;fontStyle=1;align=center;verticalAlign=top;childLayout=stackLayout;horizontal=1;startSize=26;horizontalStack=0;resizeParent=1;resizeParentMax=0;resizeLast=0;collapsible=1;marginBottom=0;whiteSpace=wrap;html=1;" vertex="1" parent="1">
          <mxGeometry x="870" y="317" width="160" height="34" as="geometry" />
        </mxCell>
        <mxCell id="W7zw9zWphbjfF9petZ9U-31" value="" style="line;strokeWidth=1;fillColor=none;align=left;verticalAlign=middle;spacingTop=-1;spacingLeft=3;spacingRight=3;rotatable=0;labelPosition=right;points=[];portConstraint=eastwest;strokeColor=inherit;" vertex="1" parent="W7zw9zWphbjfF9petZ9U-29">
          <mxGeometry y="26" width="160" height="8" as="geometry" />
        </mxCell>
        <mxCell id="W7zw9zWphbjfF9petZ9U-33" value="(Class): BudgetTrackerApp" style="swimlane;fontStyle=1;align=center;verticalAlign=top;childLayout=stackLayout;horizontal=1;startSize=26;horizontalStack=0;resizeParent=1;resizeParentMax=0;resizeLast=0;collapsible=1;marginBottom=0;whiteSpace=wrap;html=1;" vertex="1" parent="1">
          <mxGeometry x="220" y="110" width="220" height="130" as="geometry" />
        </mxCell>
        <mxCell id="W7zw9zWphbjfF9petZ9U-34" value="- budgetManager: BudgetManager" style="text;strokeColor=none;fillColor=none;align=left;verticalAlign=top;spacingLeft=4;spacingRight=4;overflow=hidden;rotatable=0;points=[[0,0.5],[1,0.5]];portConstraint=eastwest;whiteSpace=wrap;html=1;" vertex="1" parent="W7zw9zWphbjfF9petZ9U-33">
          <mxGeometry y="26" width="220" height="24" as="geometry" />
        </mxCell>
        <mxCell id="W7zw9zWphbjfF9petZ9U-35" value="" style="line;strokeWidth=1;fillColor=none;align=left;verticalAlign=middle;spacingTop=-1;spacingLeft=3;spacingRight=3;rotatable=0;labelPosition=right;points=[];portConstraint=eastwest;strokeColor=inherit;" vertex="1" parent="W7zw9zWphbjfF9petZ9U-33">
          <mxGeometry y="50" width="220" height="8" as="geometry" />
        </mxCell>
        <mxCell id="W7zw9zWphbjfF9petZ9U-36" value="+ main(args: String[]): void&lt;div&gt;+ start(primaryStage: Stage): void&lt;/div&gt;&lt;div&gt;+ showAddTransactionWindow(): void&lt;/div&gt;&lt;div&gt;+ showSummaryWindow(): void&lt;/div&gt;" style="text;strokeColor=none;fillColor=none;align=left;verticalAlign=top;spacingLeft=4;spacingRight=4;overflow=hidden;rotatable=0;points=[[0,0.5],[1,0.5]];portConstraint=eastwest;whiteSpace=wrap;html=1;" vertex="1" parent="W7zw9zWphbjfF9petZ9U-33">
          <mxGeometry y="58" width="220" height="72" as="geometry" />
        </mxCell>
        <mxCell id="W7zw9zWphbjfF9petZ9U-37" value="(Class): SummaryWindow" style="swimlane;fontStyle=1;align=center;verticalAlign=top;childLayout=stackLayout;horizontal=1;startSize=26;horizontalStack=0;resizeParent=1;resizeParentMax=0;resizeLast=0;collapsible=1;marginBottom=0;whiteSpace=wrap;html=1;" vertex="1" parent="1">
          <mxGeometry x="-270" y="119" width="470" height="80" as="geometry" />
        </mxCell>
        <mxCell id="W7zw9zWphbjfF9petZ9U-39" value="" style="line;strokeWidth=1;fillColor=none;align=left;verticalAlign=middle;spacingTop=-1;spacingLeft=3;spacingRight=3;rotatable=0;labelPosition=right;points=[];portConstraint=eastwest;strokeColor=inherit;" vertex="1" parent="W7zw9zWphbjfF9petZ9U-37">
          <mxGeometry y="26" width="470" height="8" as="geometry" />
        </mxCell>
        <mxCell id="W7zw9zWphbjfF9petZ9U-40" value="+display(budgetManager: BudgetManager, primaryStage: Stage): void&lt;div&gt;+ createTransactionTable(transactions: List&amp;lt;Transaction&amp;gt;): TableView&amp;lt;Transactions&amp;gt;&lt;/div&gt;" style="text;strokeColor=none;fillColor=none;align=left;verticalAlign=top;spacingLeft=4;spacingRight=4;overflow=hidden;rotatable=0;points=[[0,0.5],[1,0.5]];portConstraint=eastwest;whiteSpace=wrap;html=1;" vertex="1" parent="W7zw9zWphbjfF9petZ9U-37">
          <mxGeometry y="34" width="470" height="46" as="geometry" />
        </mxCell>
        <mxCell id="W7zw9zWphbjfF9petZ9U-43" style="edgeStyle=orthogonalEdgeStyle;rounded=0;orthogonalLoop=1;jettySize=auto;html=1;entryX=0.421;entryY=0.09;entryDx=0;entryDy=0;entryPerimeter=0;" edge="1" parent="1" source="W7zw9zWphbjfF9petZ9U-25" target="W7zw9zWphbjfF9petZ9U-29">
          <mxGeometry relative="1" as="geometry" />
        </mxCell>
        <mxCell id="W7zw9zWphbjfF9petZ9U-44" value="Uses" style="text;html=1;align=center;verticalAlign=middle;resizable=0;points=[];autosize=1;strokeColor=none;fillColor=none;" vertex="1" parent="1">
          <mxGeometry x="905" y="198" width="50" height="30" as="geometry" />
        </mxCell>
        <mxCell id="W7zw9zWphbjfF9petZ9U-45" value="" style="endArrow=classic;html=1;rounded=0;entryX=0.5;entryY=0;entryDx=0;entryDy=0;" edge="1" parent="1" target="W7zw9zWphbjfF9petZ9U-17">
          <mxGeometry width="50" height="50" relative="1" as="geometry">
            <mxPoint x="139.23" y="475" as="sourcePoint" />
            <mxPoint x="139.23" y="555" as="targetPoint" />
          </mxGeometry>
        </mxCell>
        <mxCell id="W7zw9zWphbjfF9petZ9U-46" value="Test" style="text;html=1;align=center;verticalAlign=middle;resizable=0;points=[];autosize=1;strokeColor=none;fillColor=none;" vertex="1" parent="1">
          <mxGeometry x="125" y="498" width="50" height="30" as="geometry" />
        </mxCell>
        <mxCell id="W7zw9zWphbjfF9petZ9U-47" value="" style="endArrow=classic;html=1;rounded=0;entryX=0.44;entryY=0.005;entryDx=0;entryDy=0;entryPerimeter=0;exitX=0.469;exitY=1.033;exitDx=0;exitDy=0;exitPerimeter=0;" edge="1" parent="1" source="W7zw9zWphbjfF9petZ9U-12" target="W7zw9zWphbjfF9petZ9U-13">
          <mxGeometry width="50" height="50" relative="1" as="geometry">
            <mxPoint x="620" y="550" as="sourcePoint" />
            <mxPoint x="670" y="500" as="targetPoint" />
          </mxGeometry>
        </mxCell>
        <mxCell id="W7zw9zWphbjfF9petZ9U-48" value="Test" style="text;html=1;align=center;verticalAlign=middle;resizable=0;points=[];autosize=1;strokeColor=none;fillColor=none;" vertex="1" parent="1">
          <mxGeometry x="695" y="488" width="50" height="30" as="geometry" />
        </mxCell>
        <mxCell id="W7zw9zWphbjfF9petZ9U-49" value="" style="endArrow=classic;html=1;rounded=0;exitX=0.01;exitY=1.01;exitDx=0;exitDy=0;exitPerimeter=0;entryX=1;entryY=0;entryDx=0;entryDy=0;" edge="1" parent="1" source="W7zw9zWphbjfF9petZ9U-4" target="W7zw9zWphbjfF9petZ9U-17">
          <mxGeometry width="50" height="50" relative="1" as="geometry">
            <mxPoint x="260" y="610" as="sourcePoint" />
            <mxPoint x="250" y="660" as="targetPoint" />
          </mxGeometry>
        </mxCell>
        <mxCell id="W7zw9zWphbjfF9petZ9U-50" value="Manages" style="text;html=1;align=center;verticalAlign=middle;resizable=0;points=[];autosize=1;strokeColor=none;fillColor=none;" vertex="1" parent="1">
          <mxGeometry x="235" y="548" width="70" height="30" as="geometry" />
        </mxCell>
        <mxCell id="W7zw9zWphbjfF9petZ9U-51" value="" style="endArrow=classic;html=1;rounded=0;entryX=0;entryY=0;entryDx=0;entryDy=0;exitX=1.001;exitY=1.01;exitDx=0;exitDy=0;exitPerimeter=0;" edge="1" parent="1" source="W7zw9zWphbjfF9petZ9U-4" target="W7zw9zWphbjfF9petZ9U-13">
          <mxGeometry width="50" height="50" relative="1" as="geometry">
            <mxPoint x="530" y="600" as="sourcePoint" />
            <mxPoint x="580" y="550" as="targetPoint" />
          </mxGeometry>
        </mxCell>
        <mxCell id="W7zw9zWphbjfF9petZ9U-52" value="Has a" style="text;html=1;align=center;verticalAlign=middle;resizable=0;points=[];autosize=1;strokeColor=none;fillColor=none;" vertex="1" parent="1">
          <mxGeometry x="550" y="548" width="50" height="30" as="geometry" />
        </mxCell>
        <mxCell id="W7zw9zWphbjfF9petZ9U-53" style="edgeStyle=orthogonalEdgeStyle;rounded=0;orthogonalLoop=1;jettySize=auto;html=1;entryX=0.002;entryY=-0.183;entryDx=0;entryDy=0;entryPerimeter=0;" edge="1" parent="1" source="W7zw9zWphbjfF9petZ9U-37" target="W7zw9zWphbjfF9petZ9U-19">
          <mxGeometry relative="1" as="geometry" />
        </mxCell>
        <mxCell id="W7zw9zWphbjfF9petZ9U-54" value="Creates&amp;nbsp;&lt;div&gt;Tableview&lt;/div&gt;" style="text;html=1;align=center;verticalAlign=middle;resizable=0;points=[];autosize=1;strokeColor=none;fillColor=none;" vertex="1" parent="1">
          <mxGeometry x="-40" y="413" width="80" height="40" as="geometry" />
        </mxCell>
        <mxCell id="W7zw9zWphbjfF9petZ9U-55" value="" style="endArrow=classic;html=1;rounded=0;entryX=0;entryY=0;entryDx=0;entryDy=0;exitX=0.791;exitY=0.99;exitDx=0;exitDy=0;exitPerimeter=0;" edge="1" parent="1" source="W7zw9zWphbjfF9petZ9U-40" target="W7zw9zWphbjfF9petZ9U-1">
          <mxGeometry width="50" height="50" relative="1" as="geometry">
            <mxPoint x="130" y="300" as="sourcePoint" />
            <mxPoint x="180" y="250" as="targetPoint" />
          </mxGeometry>
        </mxCell>
        <mxCell id="W7zw9zWphbjfF9petZ9U-56" value="Uses" style="text;html=1;align=center;verticalAlign=middle;resizable=0;points=[];autosize=1;strokeColor=none;fillColor=none;" vertex="1" parent="1">
          <mxGeometry x="125" y="248" width="50" height="30" as="geometry" />
        </mxCell>
        <mxCell id="W7zw9zWphbjfF9petZ9U-57" value="" style="endArrow=classic;html=1;rounded=0;entryX=0.25;entryY=0;entryDx=0;entryDy=0;exitX=0.484;exitY=0.98;exitDx=0;exitDy=0;exitPerimeter=0;" edge="1" parent="1" source="W7zw9zWphbjfF9petZ9U-36" target="W7zw9zWphbjfF9petZ9U-1">
          <mxGeometry width="50" height="50" relative="1" as="geometry">
            <mxPoint x="300" y="310" as="sourcePoint" />
            <mxPoint x="350" y="260" as="targetPoint" />
          </mxGeometry>
        </mxCell>
        <mxCell id="W7zw9zWphbjfF9petZ9U-58" value="Uses" style="text;html=1;align=center;verticalAlign=middle;resizable=0;points=[];autosize=1;strokeColor=none;fillColor=none;" vertex="1" parent="1">
          <mxGeometry x="325" y="258" width="50" height="30" as="geometry" />
        </mxCell>
        <mxCell id="W7zw9zWphbjfF9petZ9U-59" value="" style="endArrow=classic;html=1;rounded=0;entryX=0.625;entryY=0.016;entryDx=0;entryDy=0;entryPerimeter=0;exitX=0.278;exitY=1.385;exitDx=0;exitDy=0;exitPerimeter=0;" edge="1" parent="1" source="W7zw9zWphbjfF9petZ9U-24" target="W7zw9zWphbjfF9petZ9U-1">
          <mxGeometry width="50" height="50" relative="1" as="geometry">
            <mxPoint x="530" y="260" as="sourcePoint" />
            <mxPoint x="580" y="210" as="targetPoint" />
          </mxGeometry>
        </mxCell>
        <mxCell id="W7zw9zWphbjfF9petZ9U-60" value="Test" style="text;html=1;align=center;verticalAlign=middle;resizable=0;points=[];autosize=1;strokeColor=none;fillColor=none;" vertex="1" parent="1">
          <mxGeometry x="520" y="240" width="50" height="30" as="geometry" />
        </mxCell>
        <mxCell id="W7zw9zWphbjfF9petZ9U-61" value="" style="endArrow=classic;html=1;rounded=0;entryX=1;entryY=0;entryDx=0;entryDy=0;exitX=0.151;exitY=1.21;exitDx=0;exitDy=0;exitPerimeter=0;" edge="1" parent="1" source="W7zw9zWphbjfF9petZ9U-28" target="W7zw9zWphbjfF9petZ9U-1">
          <mxGeometry width="50" height="50" relative="1" as="geometry">
            <mxPoint x="730" y="240" as="sourcePoint" />
            <mxPoint x="780" y="190" as="targetPoint" />
          </mxGeometry>
        </mxCell>
        <mxCell id="W7zw9zWphbjfF9petZ9U-62" value="Uses" style="text;html=1;align=center;verticalAlign=middle;resizable=0;points=[];autosize=1;strokeColor=none;fillColor=none;" vertex="1" parent="1">
          <mxGeometry x="685" y="248" width="50" height="30" as="geometry" />
        </mxCell>
      </root>
    </mxGraphModel>
  </diagram>
</mxfile>
